<svg xmlns="http://www.w3.org/2000/svg" width="20.215" height="20.215" viewBox="0 0 20.215 20.215">
  <path id="facebook" d="M17.493,0H2.726A2.724,2.724,0,0,0,0,2.724V17.491a2.724,2.724,0,0,0,2.724,2.724h7.283l.012-7.224H8.145A.443.443,0,0,1,7.7,12.55l-.009-2.329a.443.443,0,0,1,.443-.445h1.873V7.527a3.676,3.676,0,0,1,3.924-4.033h1.911a.443.443,0,0,1,.443.443V5.9a.443.443,0,0,1-.443.443H14.672c-1.267,0-1.512.6-1.512,1.485V9.777h2.783a.443.443,0,0,1,.44.495L16.107,12.6a.443.443,0,0,1-.44.391H13.172l-.012,7.224h4.334a2.724,2.724,0,0,0,2.724-2.724V2.724A2.724,2.724,0,0,0,17.493,0Z" transform="translate(-0.002)" fill="#fff"/>
</svg>
